<?xml version="1.0" encoding="UTF-8"?>
<svg width="1092px" height="451px" viewBox="0 0 1092 451" version="1.1" xmlns="http://www.w3.org/2000/svg" xmlns:xlink="http://www.w3.org/1999/xlink">
    <!-- Generator: Sketch 58 (84663) - https://sketch.com -->
    <title>Break1</title>
    <desc>Created with Sketch.</desc>
    <defs>
        <text id="text-1" font-family="Pacifico" font-size="190" font-weight="normal" letter-spacing="1.96004">
            <tspan x="576.217088" y="353">Sofia</tspan>
        </text>
        <filter x="-11.5%" y="-14.7%" width="129.3%" height="133.3%" filterUnits="objectBoundingBox" id="filter-2">
            <feOffset dx="6" dy="7" in="SourceAlpha" result="shadowOffsetOuter1"></feOffset>
            <feGaussianBlur stdDeviation="18.5" in="shadowOffsetOuter1" result="shadowBlurOuter1"></feGaussianBlur>
            <feColorMatrix values="0 0 0 0 0.828011775   0 0 0 0 0.828011775   0 0 0 0 0.828011775  0 0 0 0.5 0" type="matrix" in="shadowBlurOuter1"></feColorMatrix>
        </filter>
    </defs>
    <g id="Page-1" stroke="none" stroke-width="1" fill="none" fill-rule="evenodd">
        <g id="Break1">
            <g id="Break" fill="#000000">
                <use fill-opacity="1" filter="url(#filter-2)" xlink:href="#text-1"></use>
                <use fill-rule="evenodd" xlink:href="#text-1"></use>
                <use fill-opacity="1" xlink:href="#text-1"></use>
            </g>
            <g id="food-2" stroke-width="1" fill-rule="evenodd">
                <path d="M402.5,179.424 L376.376,179.424 C371.064,167.804 359.356,159.692 345.764,159.692 L50.504,159.692 C31.936,159.692 16.836,174.796 16.836,193.36 L16.836,258.564 C16.836,358.532 98.168,439.864 198.136,439.864 C280.692,439.864 350.484,384.38 372.312,308.756 L402.5,308.756 C438.156,308.756 467.164,279.748 467.164,244.088 C467.164,208.428 438.156,179.424 402.5,179.424 Z M379.432,258.568 L379.432,209.012 L402.5,209.012 C421.844,209.012 437.58,224.748 437.58,244.092 C437.58,263.436 421.844,279.172 402.5,279.172 L378.228,279.172 C379,272.404 379.432,265.536 379.432,258.568 Z" id="Shape" fill="#E6E7E8" fill-rule="nonzero"></path>
                <path d="M200.664,129.256 C199.444,131.096 199.948,133.58 201.792,134.8 C202.472,135.248 203.236,135.464 203.996,135.464 C205.292,135.464 206.568,134.836 207.336,133.672 C224.184,108.22 215.304,90.464 207.468,74.796 C199.444,58.744 192.512,44.884 207.344,22.332 C208.556,20.488 208.044,18.004 206.2,16.792 C204.348,15.58 201.872,16.088 200.656,17.936 C183.296,44.34 192.336,62.42 200.312,78.372 C208.172,94.088 214.96,107.664 200.664,129.256 L200.664,129.256 Z" id="Path" fill="#E6E7E8" fill-rule="nonzero"></path>
                <path d="M140.664,129.256 C139.444,131.096 139.948,133.58 141.792,134.8 C142.472,135.248 143.236,135.464 143.996,135.464 C145.292,135.464 146.568,134.836 147.336,133.672 C164.184,108.22 155.304,90.464 147.468,74.796 C139.444,58.744 132.512,44.884 147.344,22.332 C148.556,20.488 148.044,18.004 146.2,16.792 C144.352,15.58 141.872,16.088 140.656,17.936 C123.296,44.34 132.336,62.42 140.312,78.372 C148.172,94.088 154.96,107.664 140.664,129.256 L140.664,129.256 Z" id="Path" fill="#E6E7E8" fill-rule="nonzero"></path>
                <path d="M260.664,129.256 C259.444,131.096 259.948,133.58 261.792,134.8 C262.472,135.248 263.236,135.464 263.996,135.464 C265.292,135.464 266.568,134.836 267.336,133.672 C284.184,108.22 275.304,90.464 267.468,74.796 C259.444,58.744 252.512,44.884 267.344,22.332 C268.556,20.488 268.044,18.004 266.2,16.792 C264.348,15.58 261.876,16.088 260.656,17.936 C243.296,44.34 252.336,62.42 260.312,78.372 C268.172,94.088 274.96,107.664 260.664,129.256 L260.664,129.256 Z" id="Path" fill="#E6E7E8" fill-rule="nonzero"></path>
                <path d="M386.5,167.424 L357.692,167.424 C358.8,170.536 359.436,173.872 359.436,177.36 L359.436,189.012 L386.5,189.012 C408.048,189.012 425.576,206.544 425.576,228.092 C425.576,249.64 408.048,267.172 386.5,267.172 L357.696,267.172 C356.676,274.524 355.212,281.728 353.316,288.76 L386.5,288.76 C419.952,288.76 447.164,261.544 447.164,228.092 C447.168,194.64 419.952,167.424 386.5,167.424 L386.5,167.424 Z" id="Path" fill="#6DC9F7" fill-rule="nonzero"></path>
                <path d="M329.768,147.692 L34.504,147.692 C18.12,147.692 4.836,160.976 4.836,177.36 L4.836,242.564 C4.836,340.484 84.216,419.864 182.136,419.864 C280.056,419.864 359.436,340.484 359.436,242.564 L359.436,177.364 C359.436,160.976 346.152,147.692 329.768,147.692 Z" id="Path" fill="#6DC9F7" fill-rule="nonzero"></path>
                <path d="M213.26,244.156 C194.744,221.448 163.24,216.488 142.888,233.084 C122.54,249.676 121.052,281.536 139.568,304.244 C158.084,326.952 189.588,331.912 209.94,315.316 C230.288,298.724 231.776,266.864 213.26,244.156 L213.26,244.156 Z" id="Path" fill="#FFFFFF" fill-rule="nonzero"></path>
                <path d="M142.888,245.08 C133.664,252.6 128.356,263.272 126.992,274.792 C128.172,285.032 132.312,295.34 139.568,304.24 C158.084,326.948 189.588,331.908 209.94,315.312 C219.164,307.792 224.472,297.12 225.836,285.6 C224.656,275.36 220.516,265.052 213.26,256.152 C194.744,233.448 163.236,228.488 142.888,245.08 L142.888,245.08 Z" id="Path" fill="#FA759E" fill-rule="nonzero"></path>
                <g id="Group" fill="#3A2C60" fill-rule="nonzero">
                    <path d="M386.5,163.424 L360.376,163.424 C355.064,151.804 343.356,143.692 329.764,143.692 L272.612,143.692 C270.4,143.692 268.612,145.484 268.612,147.692 C268.612,149.9 270.4,151.692 272.612,151.692 L329.764,151.692 C340.9,151.692 350.376,158.836 353.92,168.768 C354.404,170.128 354.764,171.508 355.016,172.896 C355.036,173.016 355.052,173.14 355.072,173.26 C355.3,174.62 355.432,175.988 355.432,177.36 L355.432,189.012 L355.432,242.564 C355.432,250.792 354.816,258.876 353.7,266.8 C352.74,273.664 351.352,280.5 349.588,287.144 C329.864,361.164 262.276,415.86 182.128,415.86 C86.572,415.86 8.832,338.116 8.832,242.56 L8.832,177.364 C8.832,163.208 20.348,151.696 34.5,151.696 L184.412,151.696 C186.624,151.696 188.412,149.904 188.412,147.696 C188.412,145.488 186.624,143.696 184.412,143.696 L34.504,143.696 C15.936,143.696 0.836,158.8 0.836,177.364 L0.836,242.568 C0.836,342.536 82.168,423.868 182.136,423.868 C264.692,423.868 334.484,368.384 356.312,292.76 L386.5,292.76 C422.156,292.76 451.164,263.752 451.164,228.092 C451.164,192.432 422.156,163.424 386.5,163.424 L386.5,163.424 Z M363.432,193.012 L386.5,193.012 C405.844,193.012 421.58,208.748 421.58,228.092 C421.58,247.436 405.844,263.172 386.5,263.172 L362.228,263.172 C362.996,256.404 363.432,249.536 363.432,242.568 L363.432,193.012 Z M386.5,284.76 L358.456,284.76 C358.644,283.972 358.796,283.176 358.972,282.384 C359.804,278.684 360.552,274.952 361.152,271.168 L386.496,271.168 C410.248,271.168 429.576,251.844 429.576,228.088 C429.576,204.332 410.252,185.008 386.496,185.008 L363.428,185.008 L363.428,177.356 C363.428,176.3 363.368,175.244 363.268,174.192 C363.216,173.62 363.12,173.06 363.036,172.5 C362.984,172.14 362.952,171.78 362.888,171.42 L386.492,171.42 C417.74,171.42 443.156,196.84 443.156,228.088 C443.156,259.336 417.748,284.76 386.5,284.76 L386.5,284.76 Z" id="Shape"></path>
                    <path d="M209.94,151.692 L249.012,151.692 C251.224,151.692 253.012,149.9 253.012,147.692 C253.012,145.484 251.224,143.692 249.012,143.692 L209.94,143.692 C207.728,143.692 205.94,145.484 205.94,147.692 C205.94,149.9 207.732,151.692 209.94,151.692 Z" id="Path"></path>
                    <path d="M179.384,219.928 C164.968,217.656 151.104,221.228 140.364,229.98 C140.276,230.052 140.2,230.136 140.116,230.208 C140.104,230.22 140.092,230.228 140.08,230.24 C129.528,238.984 123.336,251.724 122.664,266.18 C121.992,280.604 126.896,295.02 136.472,306.764 C146.052,318.512 159.184,326.216 173.448,328.464 C176.288,328.908 179.1,329.132 181.872,329.132 C193.204,329.132 203.844,325.448 212.468,318.412 C212.508,318.38 212.54,318.344 212.576,318.312 C212.596,318.296 212.616,318.276 212.632,318.26 C234.488,300.26 236.184,265.94 216.356,241.624 C206.78,229.88 193.648,222.172 179.384,219.928 L179.384,219.928 Z M174.692,320.564 C162.376,318.624 151,311.932 142.672,301.712 C134.34,291.492 130.072,279.008 130.652,266.552 C131.128,256.28 134.912,247.088 141.356,240.076 L150.16,262.384 C154.188,272.588 163.86,279.62 174.804,280.304 L180.516,280.66 C188.78,281.176 195.86,286.572 198.548,294.408 L205.204,313.82 C196.584,319.904 185.876,322.32 174.692,320.564 Z M211.688,308.072 L206.116,291.82 C202.372,280.912 192.52,273.404 181.016,272.684 L175.304,272.328 C167.44,271.836 160.492,266.784 157.596,259.456 L147.732,234.464 C154.468,229.748 162.476,227.272 170.992,227.272 C173.344,227.272 175.732,227.46 178.14,227.84 C190.456,229.776 201.828,236.472 210.156,246.688 C225.812,265.884 226.052,292.132 211.688,308.072 L211.688,308.072 Z" id="Shape"></path>
                    <path d="M184.664,113.256 C183.444,115.096 183.948,117.58 185.792,118.8 C186.472,119.248 187.236,119.464 187.996,119.464 C189.292,119.464 190.568,118.836 191.336,117.672 C208.184,92.22 199.304,74.464 191.468,58.796 C183.444,42.744 176.512,28.884 191.344,6.332 C192.556,4.488 192.044,2.004 190.2,0.792 C188.348,-0.42 185.872,0.088 184.656,1.936 C167.296,28.34 176.336,46.42 184.312,62.372 C192.172,78.088 198.96,91.664 184.664,113.256 L184.664,113.256 Z" id="Path"></path>
                    <path d="M124.664,113.256 C123.444,115.096 123.948,117.58 125.792,118.8 C126.472,119.248 127.236,119.464 127.996,119.464 C129.292,119.464 130.568,118.836 131.336,117.672 C148.184,92.22 139.304,74.464 131.468,58.796 C123.444,42.744 116.512,28.884 131.344,6.332 C132.556,4.488 132.044,2.004 130.2,0.792 C128.352,-0.42 125.872,0.088 124.656,1.936 C107.296,28.34 116.336,46.42 124.312,62.372 C132.172,78.088 138.96,91.664 124.664,113.256 L124.664,113.256 Z" id="Path"></path>
                    <path d="M244.664,113.256 C243.444,115.096 243.948,117.58 245.792,118.8 C246.472,119.248 247.236,119.464 247.996,119.464 C249.292,119.464 250.568,118.836 251.336,117.672 C268.184,92.22 259.304,74.464 251.468,58.796 C243.444,42.744 236.512,28.884 251.344,6.332 C252.556,4.488 252.044,2.004 250.2,0.792 C248.348,-0.42 245.876,0.088 244.656,1.936 C227.296,28.34 236.336,46.42 244.312,62.372 C252.172,78.088 258.96,91.664 244.664,113.256 L244.664,113.256 Z" id="Path"></path>
                </g>
            </g>
        </g>
    </g>
</svg>