<?xml version="1.0" encoding="UTF-8"?>
<svg width="1020px" height="512px" viewBox="0 0 1020 512" version="1.1" xmlns="http://www.w3.org/2000/svg" xmlns:xlink="http://www.w3.org/1999/xlink">
    <!-- Generator: Sketch 58 (84663) - https://sketch.com -->
    <title>Break2</title>
    <desc>Created with Sketch.</desc>
    <defs>
        <text id="text-1" font-family="Pacifico" font-size="190" font-weight="normal" letter-spacing="1.96004">
            <tspan x="559.265916" y="398">Felix</tspan>
        </text>
        <filter x="-12.9%" y="-14.7%" width="131.5%" height="133.3%" filterUnits="objectBoundingBox" id="filter-2">
            <feOffset dx="6" dy="7" in="SourceAlpha" result="shadowOffsetOuter1"></feOffset>
            <feGaussianBlur stdDeviation="18.5" in="shadowOffsetOuter1" result="shadowBlurOuter1"></feGaussianBlur>
            <feColorMatrix values="0 0 0 0 0.828011775   0 0 0 0 0.828011775   0 0 0 0 0.828011775  0 0 0 0.5 0" type="matrix" in="shadowBlurOuter1"></feColorMatrix>
        </filter>
    </defs>
    <g id="Page-1" stroke="none" stroke-width="1" fill="none" fill-rule="evenodd">
        <g id="Break2">
            <g id="Break" fill="#000000">
                <use fill-opacity="1" filter="url(#filter-2)" xlink:href="#text-1"></use>
                <use fill-rule="evenodd" xlink:href="#text-1"></use>
                <use fill-opacity="1" xlink:href="#text-1"></use>
            </g>
            <g id="food" stroke-width="1" fill-rule="evenodd">
                <path d="M386.035156,71.828125 L31.074219,71.828125 L90.046875,486.179688 C91.542969,496.6875 100.539062,504.496094 111.148438,504.496094 L305.960938,504.496094 C316.574219,504.496094 325.570312,496.6875 327.066406,486.179688 L386.035156,71.828125 Z" id="Path" fill="#F3E8D7" fill-rule="nonzero"></path>
                <path d="M327.734375,71.828125 L266.15625,504.496094 L305.960938,504.496094 C316.574219,504.496094 325.570312,496.6875 327.0625,486.179688 L386.035156,71.828125 L327.734375,71.828125 Z" id="Path" fill="#E5D8C6" fill-rule="nonzero"></path>
                <path d="M349.246094,7.503906 L67.863281,7.503906 C63.855469,7.503906 60.402344,10.320312 59.59375,14.242188 L46.671875,76.886719 L370.4375,76.886719 L357.515625,14.242188 C356.707031,10.320312 353.253906,7.503906 349.246094,7.503906 Z" id="Path" fill="#464C50" fill-rule="nonzero"></path>
                <path d="M361.0625,31.421875 L357.519531,14.242188 C356.707031,10.320312 353.253906,7.503906 349.25,7.503906 L298.828125,7.503906 L301.578125,20.835938 C303.824219,31.730469 295.503906,36.9375 284.378906,36.9375 L54.910156,36.9375 L46.671875,76.886719 L370.441406,76.886719 L361.0625,31.421875 Z" id="Path" fill="#31363B" fill-rule="nonzero"></path>
                <path d="M396.675781,111.574219 L20.433594,111.574219 C13.570312,111.574219 8.003906,106.007812 8.003906,99.144531 L8.003906,66.1875 C8.003906,59.324219 13.570312,53.757812 20.433594,53.757812 L396.675781,53.757812 C403.539062,53.757812 409.105469,59.324219 409.105469,66.1875 L409.105469,99.144531 C409.105469,106.011719 403.539062,111.574219 396.675781,111.574219 Z" id="Path" fill="#464C50" fill-rule="nonzero"></path>
                <path d="M396.675781,53.757812 L351.386719,53.757812 L351.386719,64.109375 C351.386719,83.78125 341.664062,94.722656 321.992188,94.722656 L26.660156,94.722656 C19.796875,94.722656 14.230469,89.160156 14.230469,82.292969 L8.007812,99.144531 C8.007812,106.007812 13.570312,111.574219 20.4375,111.574219 L396.675781,111.574219 C403.539062,111.574219 409.105469,106.007812 409.105469,99.144531 L409.105469,66.1875 C409.105469,59.324219 403.539062,53.757812 396.675781,53.757812 L396.675781,53.757812 Z" id="Path" fill="#31363B" fill-rule="nonzero"></path>
                <path d="M71.566406,434.625 L34.5625,174.636719 C33.707031,168.597656 38.390625,163.203125 44.488281,163.203125 L372.625,163.203125 C378.722656,163.203125 383.40625,168.601562 382.546875,174.636719 L345.542969,434.625 C344.839844,439.5625 340.609375,443.234375 335.621094,443.234375 L81.488281,443.234375 C76.5,443.234375 72.269531,439.5625 71.566406,434.625 Z" id="Path" fill="#D38231" fill-rule="nonzero"></path>
                <path d="M372.625,163.203125 L326.121094,163.203125 L286.265625,443.234375 L335.621094,443.234375 C340.609375,443.234375 344.839844,439.5625 345.542969,434.625 L382.546875,174.636719 C383.40625,168.601562 378.722656,163.203125 372.625,163.203125 Z" id="Path" fill="#C1752F" fill-rule="nonzero"></path>
                <path d="M259.746094,246.765625 C237.726562,224.746094 196.957031,229.816406 168.683594,258.085938 C140.410156,286.359375 135.339844,327.132812 157.359375,349.148438 C179.378906,371.167969 220.148438,366.097656 248.421875,337.828125 C276.695312,309.554688 281.765625,268.78125 259.746094,246.765625 Z" id="Path" fill="#A0E557" fill-rule="nonzero"></path>
                <path d="M396.675781,46.253906 L371.785156,46.253906 L364.871094,12.726562 C363.347656,5.351562 356.777344,0 349.25,0 L67.863281,0 C60.332031,0 53.761719,5.351562 52.242188,12.726562 L45.324219,46.253906 L20.433594,46.253906 C9.441406,46.253906 0.5,55.195312 0.5,66.1875 L0.5,99.144531 C0.5,110.136719 9.441406,119.082031 20.433594,119.082031 L30.214844,119.082031 L35.757812,158.03125 C34.078125,159 32.546875,160.238281 31.246094,161.734375 C27.917969,165.574219 26.417969,170.660156 27.132812,175.695312 L64.136719,435.683594 C65.15625,442.855469 70.542969,448.542969 77.347656,450.222656 L82.613281,487.238281 C84.625,501.355469 96.890625,512 111.148438,512 L305.964844,512 C320.222656,512 332.488281,501.355469 334.5,487.238281 L339.765625,450.222656 C346.570312,448.542969 351.957031,442.855469 352.976562,435.683594 L389.980469,175.695312 C390.695312,170.660156 389.195312,165.574219 385.867188,161.734375 C384.566406,160.238281 383.035156,159 381.351562,158.03125 L386.898438,119.082031 L396.679688,119.082031 C407.671875,119.082031 416.613281,110.136719 416.613281,99.144531 L416.613281,66.1875 C416.613281,55.195312 407.667969,46.253906 396.675781,46.253906 Z M375.113281,173.578125 L338.109375,433.566406 C337.933594,434.800781 336.863281,435.726562 335.621094,435.726562 L263.773438,435.726562 C259.628906,435.726562 256.269531,439.085938 256.269531,443.234375 C256.269531,447.382812 259.628906,450.742188 263.773438,450.742188 L324.527344,450.742188 L319.632812,485.125 C318.667969,491.886719 312.792969,496.988281 305.960938,496.988281 L111.148438,496.988281 C104.316406,496.988281 98.441406,491.886719 97.476562,485.125 L92.585938,450.742188 L228.839844,450.742188 C232.988281,450.742188 236.347656,447.382812 236.347656,443.234375 C236.347656,439.085938 232.988281,435.726562 228.839844,435.726562 L81.488281,435.726562 C80.246094,435.726562 79.175781,434.800781 79,433.566406 L41.996094,173.578125 C41.855469,172.589844 42.304688,171.898438 42.585938,171.574219 C42.855469,171.265625 43.441406,170.773438 44.355469,170.726562 C44.457031,170.722656 44.554688,170.714844 44.660156,170.707031 L372.449219,170.707031 C372.550781,170.714844 372.652344,170.722656 372.753906,170.726562 C373.667969,170.773438 374.253906,171.265625 374.523438,171.574219 C374.804688,171.898438 375.253906,172.589844 375.113281,173.578125 L375.113281,173.578125 Z M45.382812,119.082031 L371.730469,119.082031 L366.519531,155.695312 L50.59375,155.695312 L45.382812,119.082031 Z M401.597656,99.144531 C401.597656,101.859375 399.390625,104.066406 396.675781,104.066406 L20.433594,104.066406 C17.722656,104.066406 15.511719,101.859375 15.511719,99.144531 L15.511719,66.1875 C15.511719,63.472656 17.722656,61.265625 20.433594,61.265625 L87.609375,61.265625 C91.753906,61.265625 95.113281,57.90625 95.113281,53.757812 C95.113281,49.613281 91.753906,46.253906 87.609375,46.253906 L60.65625,46.253906 L66.945312,15.761719 C67.035156,15.328125 67.421875,15.011719 67.863281,15.011719 L349.25,15.011719 C349.691406,15.011719 350.078125,15.328125 350.167969,15.761719 L356.457031,46.253906 L122.542969,46.253906 C118.394531,46.253906 115.035156,49.613281 115.035156,53.757812 C115.035156,57.90625 118.394531,61.265625 122.542969,61.265625 L396.675781,61.265625 C399.390625,61.265625 401.597656,63.472656 401.597656,66.1875 L401.597656,99.144531 Z" id="Shape" fill="#000000" fill-rule="nonzero"></path>
                <path d="M265.023438,241.421875 C264.972656,241.371094 264.917969,241.324219 264.863281,241.273438 C239.910156,216.578125 194.453125,221.703125 163.378906,252.78125 C148.527344,267.628906 139.058594,286.1875 136.714844,305.039062 C134.28125,324.585938 139.730469,342.136719 152.054688,354.460938 C152.054688,354.464844 152.058594,354.464844 152.0625,354.46875 C152.082031,354.488281 152.101562,354.507812 152.121094,354.523438 C162.519531,364.886719 176.617188,370.367188 192.496094,370.367188 C195.429688,370.367188 198.429688,370.175781 201.472656,369.800781 C220.324219,367.457031 238.882812,357.984375 253.734375,343.136719 C284.886719,311.980469 289.96875,266.367188 265.058594,241.457031 C265.046875,241.441406 265.035156,241.433594 265.023438,241.421875 Z M151.613281,306.890625 C153.546875,291.339844 161.496094,275.894531 173.992188,263.394531 C188.964844,248.421875 207.710938,240.53125 224.472656,240.53125 C232.175781,240.53125 239.453125,242.207031 245.757812,245.621094 C233.152344,253.109375 213.578125,267.839844 207.625,289.671875 C202.445312,308.652344 174.34375,329.679688 158.921875,339.429688 C152.640625,330.800781 150.046875,319.472656 151.613281,306.890625 Z M243.117188,332.519531 C230.617188,345.019531 215.171875,352.964844 199.621094,354.898438 C188.636719,356.265625 178.605469,354.464844 170.492188,349.808594 C185.972656,339.589844 215.625,317.394531 222.109375,293.621094 C227.402344,274.203125 248.324219,261.128906 257.878906,256.046875 C272.738281,275.828125 266.753906,308.878906 243.117188,332.519531 L243.117188,332.519531 Z" id="Shape" fill="#000000" fill-rule="nonzero"></path>
            </g>
        </g>
    </g>
</svg>