<?xml version="1.0" encoding="UTF-8"?>
<svg width="1331px" height="496px" viewBox="0 0 1331 496" version="1.1" xmlns="http://www.w3.org/2000/svg" xmlns:xlink="http://www.w3.org/1999/xlink">
    <!-- Generator: Sketch 58 (84663) - https://sketch.com -->
    <title>edo</title>
    <desc>Created with Sketch.</desc>
    <defs>
        <filter x="-22.2%" y="-28.7%" width="144.3%" height="157.3%" filterUnits="objectBoundingBox" id="filter-1">
            <feOffset dx="-7" dy="-1" in="SourceAlpha" result="shadowOffsetOuter1"></feOffset>
            <feGaussianBlur stdDeviation="26" in="shadowOffsetOuter1" result="shadowBlurOuter1"></feGaussianBlur>
            <feColorMatrix values="0 0 0 0 0   0 0 0 0 0   0 0 0 0 0  0 0 0 0.5 0" type="matrix" in="shadowBlurOuter1" result="shadowMatrixOuter1"></feColorMatrix>
            <feMerge>
                <feMergeNode in="shadowMatrixOuter1"></feMergeNode>
                <feMergeNode in="SourceGraphic"></feMergeNode>
            </feMerge>
        </filter>
        <text id="text-2" font-family="Pacifico" font-size="190" font-weight="normal" letter-spacing="1.96004">
            <tspan x="547.293669" y="329">Edoardo</tspan>
        </text>
        <filter x="-8.0%" y="-14.7%" width="121.2%" height="133.3%" filterUnits="objectBoundingBox" id="filter-3">
            <feOffset dx="6" dy="7" in="SourceAlpha" result="shadowOffsetOuter1"></feOffset>
            <feGaussianBlur stdDeviation="18.5" in="shadowOffsetOuter1" result="shadowBlurOuter1"></feGaussianBlur>
            <feColorMatrix values="0 0 0 0 0.828011775   0 0 0 0 0.828011775   0 0 0 0 0.828011775  0 0 0 0.5 0" type="matrix" in="shadowBlurOuter1"></feColorMatrix>
        </filter>
    </defs>
    <g id="Page-1" stroke="none" stroke-width="1" fill="none" fill-rule="evenodd">
        <g id="edo" transform="translate(58.000000, 51.000000)">
            <g id="cookie" filter="url(#filter-1)" stroke-width="1" fill-rule="evenodd">
                <circle id="Oval" fill="#8D6A59" fill-rule="nonzero" cx="334.71" cy="217.94" r="177.29"></circle>
                <circle id="Oval" fill="#000000" fill-rule="nonzero" opacity="0.2" cx="334.71" cy="217.94" r="177.29"></circle>
                <circle id="Oval" fill="#000000" fill-rule="nonzero" opacity="0.1" cx="340.66" cy="223.89" r="143.31"></circle>
                <circle id="Oval" fill="#FFFFFF" fill-rule="nonzero" cx="334.71" cy="217.94" r="143.31"></circle>
                <path d="M291.588,45.943 C214.516,65.205 157.421,134.9 157.421,217.94 C157.421,278.739 188.032,332.382 234.676,364.32 C311.748,345.058 368.843,275.363 368.843,192.323 C368.843,131.524 338.232,77.881 291.588,45.943 Z" id="Path" fill="#000000" fill-rule="nonzero" opacity="0.1"></path>
                <circle id="Oval" fill="#8D6A59" fill-rule="nonzero" cx="177.29" cy="178.06" r="177.29"></circle>
                <path d="M177.29,332.104 C92.349,332.104 23.245,263 23.245,178.06 C23.245,93.119 92.349,24.016 177.289,24.016 C262.229,24.016 331.333,93.119 331.333,178.06 C331.333,263 262.23,332.104 177.29,332.104 Z M177.29,39.016 C100.62,39.016 38.246,101.391 38.246,178.06 C38.246,254.73 100.621,317.105 177.29,317.105 C253.959,317.105 316.334,254.73 316.334,178.06 C316.334,101.391 253.959,39.016 177.29,39.016 Z" id="Shape" fill="#000000" fill-rule="nonzero" opacity="0.1"></path>
                <g id="Group" transform="translate(77.000000, 151.000000)" fill="#394049" fill-rule="nonzero">
                    <path d="M34.154,28.148 C30.012,28.148 26.654,24.79 26.654,20.648 C26.654,17.603 24.177,15.125 21.132,15.125 C18.087,15.125 15.61,17.602 15.61,20.648 C15.61,24.79 12.252,28.148 8.11,28.148 C3.968,28.148 0.61,24.79 0.61,20.648 C0.61,9.332 9.816,0.125 21.132,0.125 C32.448,0.125 41.654,9.331 41.654,20.648 C41.654,24.79 38.296,28.148 34.154,28.148 Z" id="Path"></path>
                    <path d="M192.469,28.148 C188.327,28.148 184.969,24.79 184.969,20.648 C184.969,17.603 182.492,15.125 179.447,15.125 C176.402,15.125 173.924,17.602 173.924,20.648 C173.924,24.79 170.566,28.148 166.424,28.148 C162.282,28.148 158.924,24.79 158.924,20.648 C158.924,9.332 168.13,0.125 179.447,0.125 C190.763,0.125 199.969,9.331 199.969,20.648 C199.969,24.79 196.611,28.148 192.469,28.148 Z" id="Path"></path>
                </g>
                <g id="Group" transform="translate(79.000000, 189.000000)" fill="#E8A8C2" fill-rule="nonzero">
                    <path d="M30.08,15.995 L8.184,15.995 C4.042,15.995 0.684,12.638 0.684,8.495 C0.684,4.352 4.042,0.995 8.184,0.995 L30.08,0.995 C34.222,0.995 37.58,4.352 37.58,8.495 C37.58,12.638 34.222,15.995 30.08,15.995 Z" id="Path"></path>
                    <path d="M188.395,15.995 L166.499,15.995 C162.357,15.995 158.999,12.638 158.999,8.495 C158.999,4.352 162.357,0.995 166.499,0.995 L188.395,0.995 C192.537,0.995 195.895,4.352 195.895,8.495 C195.895,12.638 192.538,15.995 188.395,15.995 Z" id="Path"></path>
                </g>
                <path d="M190.073,192.378 C185.232,192.378 180.781,190.673 177.289,187.832 C173.798,190.673 169.347,192.378 164.505,192.378 C153.321,192.378 144.222,183.279 144.222,172.095 C144.222,167.952 147.58,164.595 151.722,164.595 C155.864,164.595 159.222,167.952 159.222,172.095 C159.222,175.008 161.592,177.378 164.505,177.378 C167.418,177.378 169.789,175.008 169.789,172.095 C169.789,167.952 173.147,164.595 177.289,164.595 C181.431,164.595 184.789,167.952 184.789,172.095 C184.789,175.008 187.159,177.378 190.073,177.378 C192.986,177.378 195.356,175.008 195.356,172.095 C195.356,167.952 198.714,164.595 202.856,164.595 C206.998,164.595 210.356,167.952 210.356,172.095 C210.356,183.279 201.257,192.378 190.073,192.378 Z" id="Path" fill="#394049" fill-rule="nonzero"></path>
                <g id="Group" opacity="0.1" transform="translate(66.000000, 67.000000)" fill="#000000" fill-rule="nonzero">
                    <path d="M111.29,63.933 C104.262,63.933 97.234,61.506 91.63,56.654 C86.02,51.795 77.559,51.796 71.949,56.653 C60.741,66.36 43.837,66.359 32.629,56.654 C27.021,51.796 18.56,51.796 12.949,56.653 C9.817,59.364 5.08,59.025 2.37,55.894 C-0.342,52.763 -0.002,48.027 3.129,45.315 C14.337,35.606 31.24,35.606 42.449,45.315 C48.058,50.172 56.519,50.171 62.129,45.314 C73.338,35.608 90.242,35.607 101.45,45.315 C107.059,50.172 115.519,50.171 121.13,45.314 C132.338,35.608 149.242,35.607 160.45,45.315 C166.059,50.172 174.52,50.171 180.13,45.314 C191.339,35.607 208.242,35.607 219.45,45.315 C222.581,48.027 222.921,52.763 220.209,55.894 C217.498,59.025 212.76,59.367 209.63,56.653 C204.021,51.796 195.561,51.795 189.95,56.653 C178.741,66.359 161.838,66.36 150.63,56.654 C145.02,51.795 136.559,51.796 130.949,56.653 C125.346,61.506 118.317,63.933 111.29,63.933 Z" id="Path"></path>
                    <path d="M111.29,26.083 C104.261,26.08425 97.235,23.657 91.63,18.804 C86.019,13.946 77.557,13.946 71.949,18.804 C60.743,28.511 43.838,28.511 32.63,18.804 C29.499,16.092 29.158,11.356 31.87,8.224 C34.581,5.094 39.317,4.751 42.449,7.464 C48.059,12.323 56.519,12.323 62.13,7.464 C73.338,-2.24 90.241,-2.242 101.45,7.464 C107.06,12.323 115.52,12.323 121.131,7.464 C132.338,-2.24 149.242,-2.242 160.451,7.464 C166.061,12.322 174.522,12.323 180.132,7.464 C183.263,4.751 187.999,5.094 190.711,8.224 C193.423,11.356 193.083,16.092 189.951,18.804 C178.742,28.509 161.839,28.509 150.632,18.804 C145.021,13.946 136.56,13.946 130.951,18.804 C125.346,23.656 118.317,26.082 111.29,26.083 Z" id="Path"></path>
                    <path d="M199.79,184.086 C192.762,184.086 185.734,181.659 180.13,176.807 C174.52,171.948 166.059,171.948 160.45,176.807 C149.241,186.512 132.338,186.512 121.13,176.807 C115.52,171.948 107.06,171.948 101.449,176.807 C90.242,186.512 73.338,186.512 62.129,176.807 C56.519,171.948 48.059,171.948 42.448,176.807 C31.24,186.511 14.336,186.511 3.128,176.807 C-0.003,174.095 -0.343,169.359 2.369,166.227 C5.08,163.097 9.816,162.755 12.948,165.467 C18.558,170.325 27.018,170.326 32.629,165.467 C43.836,155.762 60.741,155.762 71.948,165.467 C77.558,170.324 86.02,170.324 91.629,165.467 C102.837,155.762 119.741,155.762 130.948,165.467 C136.558,170.324 145.02,170.324 150.629,165.467 C161.836,155.761 178.74,155.762 189.948,165.467 C195.558,170.326 204.018,170.326 209.629,165.467 C212.759,162.756 217.497,163.095 220.208,166.227 C222.92,169.359 222.58,174.095 219.449,176.807 C213.846,181.659 206.818,184.086 199.79,184.086 Z" id="Path"></path>
                    <path d="M140.79,221.935 C133.762,221.935 126.734,219.508 121.13,214.656 C115.52,209.797 107.059,209.798 101.45,214.655 C90.242,224.362 73.338,224.361 62.13,214.656 C56.52,209.797 48.059,209.798 42.45,214.655 C39.319,217.366 34.581,217.027 31.871,213.896 C29.159,210.765 29.499,206.029 32.63,203.317 C43.838,193.609 60.742,193.607 71.95,203.317 C77.559,208.174 86.021,208.174 91.631,203.316 C102.839,193.611 119.744,193.61 130.951,203.317 C136.56,208.174 145.021,208.174 150.632,203.316 C161.839,193.609 178.743,193.608 189.952,203.317 C193.083,206.029 193.423,210.765 190.711,213.896 C187.999,217.026 183.263,217.369 180.131,214.655 C174.522,209.798 166.061,209.798 160.451,214.655 C154.846,219.509 147.818,221.935 140.79,221.935 Z" id="Path"></path>
                </g>
            </g>
            <g id="Edoardo" fill="#000000">
                <use fill-opacity="1" filter="url(#filter-3)" xlink:href="#text-2"></use>
                <use fill-rule="evenodd" xlink:href="#text-2"></use>
                <use fill-opacity="1" xlink:href="#text-2"></use>
            </g>
        </g>
    </g>
</svg>