<?xml version="1.0" encoding="UTF-8"?>
<svg width="1171px" height="610px" viewBox="0 0 1171 610" version="1.1" xmlns="http://www.w3.org/2000/svg" xmlns:xlink="http://www.w3.org/1999/xlink">
    <!-- Generator: Sketch 58 (84663) - https://sketch.com -->
    <title>papi</title>
    <desc>Created with Sketch.</desc>
    <defs>
        <filter x="-22.2%" y="-22.2%" width="144.3%" height="144.3%" filterUnits="objectBoundingBox" id="filter-1">
            <feOffset dx="-7" dy="-1" in="SourceAlpha" result="shadowOffsetOuter1"></feOffset>
            <feGaussianBlur stdDeviation="26" in="shadowOffsetOuter1" result="shadowBlurOuter1"></feGaussianBlur>
            <feColorMatrix values="0 0 0 0 0   0 0 0 0 0   0 0 0 0 0  0 0 0 0.5 0" type="matrix" in="shadowBlurOuter1" result="shadowMatrixOuter1"></feColorMatrix>
            <feMerge>
                <feMergeNode in="shadowMatrixOuter1"></feMergeNode>
                <feMergeNode in="SourceGraphic"></feMergeNode>
            </feMerge>
        </filter>
        <text id="text-2" font-family="Pacifico" font-size="190" font-weight="normal" letter-spacing="1.96004">
            <tspan x="700.155604" y="407">Papi</tspan>
        </text>
        <filter x="-14.8%" y="-14.7%" width="137.7%" height="133.3%" filterUnits="objectBoundingBox" id="filter-3">
            <feOffset dx="6" dy="7" in="SourceAlpha" result="shadowOffsetOuter1"></feOffset>
            <feGaussianBlur stdDeviation="18.5" in="shadowOffsetOuter1" result="shadowBlurOuter1"></feGaussianBlur>
            <feColorMatrix values="0 0 0 0 0.828011775   0 0 0 0 0.828011775   0 0 0 0 0.828011775  0 0 0 0.5 0" type="matrix" in="shadowBlurOuter1"></feColorMatrix>
        </filter>
    </defs>
    <g id="Page-1" stroke="none" stroke-width="1" fill="none" fill-rule="evenodd">
        <g id="papi" transform="translate(56.000000, 50.000000)">
            <g id="candy" filter="url(#filter-1)" stroke-width="1" fill-rule="evenodd">
                <path d="M314.806,175.733 C314.901,187.512 324.487,197.098 336.266,197.193 C375.579,197.509 422.768,188.254 461.283,173.291 C481.84,165.305 508.299,149.307 511.764,127.527 L511.764,127.527 C513.626,115.822 504.136,105.418 492.31,106.201 L476.629,107.239 C466.517,107.908 458.13,99.52 458.799,89.409 L459.972,71.672 C460.34,66.102 458.215,61.007 454.604,57.396 C450.993,53.785 445.898,51.659 440.328,52.028 L422.591,53.2 C412.479,53.869 404.092,45.481 404.761,35.37 L405.799,19.689 C406.581,7.863 396.178,-1.628 384.473,0.234 L384.473,0.234 C362.693,3.7 346.695,30.159 338.709,50.715 C323.745,89.231 314.49,136.42 314.806,175.733 Z" id="Path" fill="#E3A06F" fill-rule="nonzero"></path>
                <g id="Group" opacity="0.1" transform="translate(328.000000, 87.000000)" fill="#000000" fill-rule="nonzero">
                    <path d="M8.155,96.354 C7.748,96.354 7.335,96.321 6.92,96.252 C2.833,95.574 0.07,91.712 0.747,87.626 C3.046,73.764 21.802,25.126 41.55,3.337 C44.332,0.266 49.075,0.036 52.144,2.816 C55.213,5.598 55.447,10.341 52.666,13.41 C35.188,32.693 17.298,79.515 15.547,90.08 C14.937,93.75 11.758,96.354 8.155,96.354 Z" id="Path"></path>
                    <path d="M8.138,96.354 C4.535,96.354 1.357,93.75 0.747,90.08 C0.07,85.994 2.833,82.132 6.92,81.454 C17.484,79.703 64.307,61.812 83.59,44.335 C86.658,41.555 91.401,41.786 94.184,44.856 C96.965,47.924 96.732,52.668 93.663,55.45 C71.874,75.198 23.236,93.954 9.374,96.253 C8.958,96.32 8.545,96.354 8.138,96.354 Z" id="Path"></path>
                </g>
                <path d="M322.13,107.442 C317.285,130.762 314.634,154.406 314.806,175.733 C314.901,187.512 324.487,197.098 336.266,197.193 C357.593,197.364 381.237,194.714 404.557,189.869 C396.687,172.136 385.504,155.53 370.987,141.012 C356.469,126.494 339.863,115.311 322.13,107.442 Z" id="Path" fill="#000000" fill-rule="nonzero" opacity="0.2"></path>
                <path d="M175.732,314.807 C187.511,314.902 197.097,324.488 197.192,336.267 C197.508,375.58 188.253,422.769 173.29,461.284 C165.304,481.841 149.306,508.3 127.526,511.765 L127.526,511.765 C115.821,513.628 105.417,504.137 106.2,492.311 L107.238,476.63 C107.907,466.519 99.519,458.131 89.408,458.8 L71.671,459.973 C66.101,460.341 61.006,458.216 57.395,454.605 C53.784,450.994 51.658,445.899 52.027,440.329 L53.201,422.592 C53.87,412.48 45.482,404.093 35.371,404.762 L19.69,405.8 C7.864,406.582 -1.627,396.179 0.236,384.474 L0.236,384.474 C3.702,362.694 30.16,346.696 50.717,338.71 C89.229,323.746 136.418,314.491 175.732,314.807 Z" id="Path" fill="#E3A06F" fill-rule="nonzero"></path>
                <g id="Group" opacity="0.1" transform="translate(87.000000, 328.000000)" fill="#000000" fill-rule="nonzero">
                    <path d="M8.375,54.608 C6.331,54.608 4.296,53.778 2.815,52.145 C0.033,49.076 0.266,44.332 3.335,41.55 C25.124,21.802 73.763,3.046 87.625,0.747 C91.703,0.074 95.573,2.834 96.251,6.92 C96.929,11.006 94.165,14.868 90.079,15.546 C79.514,17.297 32.693,35.188 13.41,52.665 C11.973,53.967 10.171,54.608 8.375,54.608 Z" id="Path"></path>
                    <path d="M49.889,96.127 C48.093,96.127 46.291,95.485 44.855,94.185 C41.786,91.403 41.553,86.66 44.335,83.591 C61.81,64.308 79.702,17.486 81.454,6.92 C82.131,2.834 85.994,0.068 90.08,0.749 C94.166,1.426 96.93,5.288 96.252,9.375 C93.953,23.236 75.196,71.875 55.449,93.663 C53.968,95.297 51.932,96.127 49.889,96.127 Z" id="Path"></path>
                </g>
                <path d="M107.441,322.131 C130.761,317.286 154.405,314.636 175.732,314.807 C187.511,314.902 197.097,324.488 197.192,336.267 C197.363,357.594 194.713,381.238 189.868,404.558 C172.135,396.688 155.529,385.505 141.011,370.988 C126.493,356.47 115.31,339.864 107.441,322.131 Z" id="Path" fill="#000000" fill-rule="nonzero" opacity="0.2"></path>
                <circle id="Oval" fill="#C3E959" fill-rule="nonzero" cx="256" cy="256" r="144.98"></circle>
                <g id="Group" transform="translate(111.000000, 111.000000)" fill="#E3A06F" fill-rule="nonzero">
                    <path d="M124.732,1.441 C103.138,24.561 87.861,55.324 94.907,90.551 C101.804,125.035 137.014,142.821 144.999,144.999 C120.316,101.44 154.532,50.259 199.447,38.28 C214.137,34.362 226.848,33.04 236.939,32.894 C204.753,6.436 163.838,-4.049 124.732,1.441 Z" id="Path"></path>
                    <path d="M1.44,165.267 C24.56,186.861 55.323,202.138 90.55,195.092 C125.034,188.195 142.82,152.985 144.998,145 C101.439,169.683 50.258,135.467 38.279,90.552 C34.361,75.862 33.039,63.151 32.893,53.06 C6.435,85.246 -4.05,126.161 1.44,165.267 Z" id="Path"></path>
                    <path d="M165.266,288.559 C186.86,265.439 202.137,234.676 195.091,199.449 C188.195,164.964 152.985,147.178 144.999,145 C169.682,188.559 135.466,239.74 90.551,251.719 C75.861,255.637 63.15,256.959 53.059,257.105 C85.245,283.564 126.16,294.049 165.266,288.559 Z" id="Path"></path>
                    <path d="M288.558,124.733 C265.437,103.139 234.675,87.862 199.448,94.908 C164.963,101.804 147.177,137.014 144.999,145 C188.558,120.317 239.739,154.533 251.718,199.448 C255.636,214.138 256.958,226.849 257.104,236.94 C283.563,204.754 294.048,163.839 288.558,124.733 Z" id="Path"></path>
                </g>
                <path d="M164.407,143.605 C160.642,146.681 156.994,149.973 153.483,153.485 C96.865,210.103 96.865,301.899 153.483,358.517 C209.44,414.474 299.754,415.12 356.513,360.469 C173.372,390.304 150.976,200.222 164.407,143.605 Z" id="Path" fill="#000000" fill-rule="nonzero" opacity="0.1"></path>
            </g>
            <g id="Papi" fill="#000000">
                <use fill-opacity="1" filter="url(#filter-3)" xlink:href="#text-2"></use>
                <use fill-rule="evenodd" xlink:href="#text-2"></use>
                <use fill-opacity="1" xlink:href="#text-2"></use>
            </g>
        </g>
    </g>
</svg>